<mxfile host="app.diagrams.net" modified="2022-03-23T20:21:31.764Z" agent="5.0 (Windows NT 10.0; Win64; x64) AppleWebKit/537.36 (KHTML, like Gecko) Chrome/99.0.4844.82 Safari/537.36" etag="rb0oUyeHx4bC51KFDs7-" version="17.2.1" type="github">
  <diagram id="374JfQsWj9oA3YM3AAaq" name="Page-1">
    <mxGraphModel dx="2844" dy="1524" grid="1" gridSize="10" guides="1" tooltips="1" connect="1" arrows="1" fold="1" page="1" pageScale="1" pageWidth="850" pageHeight="1100" math="0" shadow="0">
      <root>
        <mxCell id="0" />
        <mxCell id="1" parent="0" />
        <mxCell id="Un8xfLeNFUTZ3CuwMJHr-3" value="" style="rounded=1;whiteSpace=wrap;html=1;" vertex="1" parent="1">
          <mxGeometry x="20" y="900" width="820" height="100" as="geometry" />
        </mxCell>
        <mxCell id="Un8xfLeNFUTZ3CuwMJHr-4" value="&lt;font style=&quot;font-size: 14px&quot;&gt;player cards&lt;/font&gt;" style="rounded=0;whiteSpace=wrap;html=1;" vertex="1" parent="1">
          <mxGeometry x="50" y="920" width="40" height="60" as="geometry" />
        </mxCell>
        <mxCell id="Un8xfLeNFUTZ3CuwMJHr-5" value="" style="rounded=0;whiteSpace=wrap;html=1;" vertex="1" parent="1">
          <mxGeometry x="120" y="920" width="40" height="60" as="geometry" />
        </mxCell>
        <mxCell id="Un8xfLeNFUTZ3CuwMJHr-6" value="" style="rounded=0;whiteSpace=wrap;html=1;" vertex="1" parent="1">
          <mxGeometry x="190" y="920" width="40" height="60" as="geometry" />
        </mxCell>
        <mxCell id="Un8xfLeNFUTZ3CuwMJHr-7" value="" style="rounded=0;whiteSpace=wrap;html=1;" vertex="1" parent="1">
          <mxGeometry x="260" y="920" width="40" height="60" as="geometry" />
        </mxCell>
        <mxCell id="Un8xfLeNFUTZ3CuwMJHr-8" value="" style="rounded=0;whiteSpace=wrap;html=1;" vertex="1" parent="1">
          <mxGeometry x="540" y="920" width="40" height="60" as="geometry" />
        </mxCell>
        <mxCell id="Un8xfLeNFUTZ3CuwMJHr-9" value="" style="rounded=0;whiteSpace=wrap;html=1;" vertex="1" parent="1">
          <mxGeometry x="470" y="920" width="40" height="60" as="geometry" />
        </mxCell>
        <mxCell id="Un8xfLeNFUTZ3CuwMJHr-10" value="" style="rounded=0;whiteSpace=wrap;html=1;" vertex="1" parent="1">
          <mxGeometry x="400" y="920" width="40" height="60" as="geometry" />
        </mxCell>
        <mxCell id="Un8xfLeNFUTZ3CuwMJHr-11" value="" style="rounded=0;whiteSpace=wrap;html=1;" vertex="1" parent="1">
          <mxGeometry x="330" y="920" width="40" height="60" as="geometry" />
        </mxCell>
        <mxCell id="Un8xfLeNFUTZ3CuwMJHr-12" value="" style="rounded=0;whiteSpace=wrap;html=1;" vertex="1" parent="1">
          <mxGeometry x="680" y="920" width="40" height="60" as="geometry" />
        </mxCell>
        <mxCell id="Un8xfLeNFUTZ3CuwMJHr-13" value="" style="rounded=0;whiteSpace=wrap;html=1;" vertex="1" parent="1">
          <mxGeometry x="610" y="920" width="40" height="60" as="geometry" />
        </mxCell>
        <mxCell id="Un8xfLeNFUTZ3CuwMJHr-14" value="" style="rounded=0;whiteSpace=wrap;html=1;" vertex="1" parent="1">
          <mxGeometry x="750" y="920" width="40" height="60" as="geometry" />
        </mxCell>
        <mxCell id="Un8xfLeNFUTZ3CuwMJHr-15" value="&lt;font style=&quot;font-size: 18px&quot;&gt;draw pile&lt;/font&gt;" style="rounded=0;whiteSpace=wrap;html=1;" vertex="1" parent="1">
          <mxGeometry x="770" y="505" width="60" height="90" as="geometry" />
        </mxCell>
        <mxCell id="Un8xfLeNFUTZ3CuwMJHr-16" value="&lt;font style=&quot;font-size: 18px&quot;&gt;player name&lt;/font&gt;" style="ellipse;whiteSpace=wrap;html=1;aspect=fixed;fontSize=14;" vertex="1" parent="1">
          <mxGeometry x="20" y="130" width="80" height="80" as="geometry" />
        </mxCell>
        <mxCell id="Un8xfLeNFUTZ3CuwMJHr-17" value="" style="ellipse;whiteSpace=wrap;html=1;aspect=fixed;fontSize=14;" vertex="1" parent="1">
          <mxGeometry x="20" y="290" width="80" height="80" as="geometry" />
        </mxCell>
        <mxCell id="Un8xfLeNFUTZ3CuwMJHr-18" value="" style="ellipse;whiteSpace=wrap;html=1;aspect=fixed;fontSize=14;" vertex="1" parent="1">
          <mxGeometry x="20" y="450" width="80" height="80" as="geometry" />
        </mxCell>
        <mxCell id="Un8xfLeNFUTZ3CuwMJHr-19" value="" style="ellipse;whiteSpace=wrap;html=1;aspect=fixed;fontSize=14;" vertex="1" parent="1">
          <mxGeometry x="20" y="610" width="80" height="80" as="geometry" />
        </mxCell>
        <mxCell id="Un8xfLeNFUTZ3CuwMJHr-20" value="" style="ellipse;whiteSpace=wrap;html=1;aspect=fixed;fontSize=14;" vertex="1" parent="1">
          <mxGeometry x="20" y="725" width="80" height="80" as="geometry" />
        </mxCell>
        <mxCell id="Un8xfLeNFUTZ3CuwMJHr-23" value="player spreads" style="rounded=1;whiteSpace=wrap;html=1;fontSize=18;" vertex="1" parent="1">
          <mxGeometry x="130" y="140" width="610" height="60" as="geometry" />
        </mxCell>
        <mxCell id="Un8xfLeNFUTZ3CuwMJHr-24" value="player spreads" style="rounded=1;whiteSpace=wrap;html=1;fontSize=18;" vertex="1" parent="1">
          <mxGeometry x="130" y="300" width="610" height="60" as="geometry" />
        </mxCell>
        <mxCell id="Un8xfLeNFUTZ3CuwMJHr-25" value="player spreads" style="rounded=1;whiteSpace=wrap;html=1;fontSize=18;" vertex="1" parent="1">
          <mxGeometry x="140" y="460" width="610" height="60" as="geometry" />
        </mxCell>
        <mxCell id="Un8xfLeNFUTZ3CuwMJHr-26" value="player spreads" style="rounded=1;whiteSpace=wrap;html=1;fontSize=18;" vertex="1" parent="1">
          <mxGeometry x="140" y="620" width="610" height="60" as="geometry" />
        </mxCell>
        <mxCell id="Un8xfLeNFUTZ3CuwMJHr-27" value="player spreads" style="rounded=1;whiteSpace=wrap;html=1;fontSize=18;" vertex="1" parent="1">
          <mxGeometry x="140" y="740" width="610" height="60" as="geometry" />
        </mxCell>
        <mxCell id="Un8xfLeNFUTZ3CuwMJHr-29" value="current wildcard" style="rounded=0;whiteSpace=wrap;html=1;fontSize=18;" vertex="1" parent="1">
          <mxGeometry x="393" y="30" width="65" height="90" as="geometry" />
        </mxCell>
        <mxCell id="Un8xfLeNFUTZ3CuwMJHr-32" value="Wild Label" style="text;html=1;strokeColor=none;fillColor=none;align=center;verticalAlign=middle;whiteSpace=wrap;rounded=0;fontSize=18;" vertex="1" parent="1">
          <mxGeometry x="370" width="110" height="30" as="geometry" />
        </mxCell>
        <mxCell id="Un8xfLeNFUTZ3CuwMJHr-33" value="Score" style="text;html=1;strokeColor=none;fillColor=none;align=center;verticalAlign=middle;whiteSpace=wrap;rounded=0;fontSize=18;" vertex="1" parent="1">
          <mxGeometry x="30" y="90" width="60" height="30" as="geometry" />
        </mxCell>
        <mxCell id="Un8xfLeNFUTZ3CuwMJHr-34" value="Cards Remaining" style="text;html=1;strokeColor=none;fillColor=none;align=center;verticalAlign=middle;whiteSpace=wrap;rounded=0;fontSize=18;" vertex="1" parent="1">
          <mxGeometry x="10" y="220" width="160" height="30" as="geometry" />
        </mxCell>
      </root>
    </mxGraphModel>
  </diagram>
</mxfile>
